<svg width="25" height="25" viewBox="0 0 25 25" fill="none" xmlns="http://www.w3.org/2000/svg">
<path d="M18.4049 8.6401C18.4049 7.013 17.7586 5.45255 16.608 4.30202C15.4575 3.15149 13.897 2.50513 12.2699 2.50513C10.6428 2.50513 9.08239 3.15149 7.93186 4.30202C6.78134 5.45255 6.13497 7.013 6.13497 8.6401C6.13497 15.7976 3.06749 17.8425 3.06749 17.8425H21.4724C21.4724 17.8425 18.4049 15.7976 18.4049 8.6401Z" stroke="#373F41" stroke-width="1.5" stroke-linecap="round" stroke-linejoin="round"/>
<path d="M14.0389 21.9326C13.8591 22.2425 13.6011 22.4997 13.2906 22.6785C12.9802 22.8573 12.6282 22.9514 12.27 22.9514C11.9117 22.9514 11.5597 22.8573 11.2493 22.6785C10.9388 22.4997 10.6808 22.2425 10.501 21.9326" stroke="#373F41" stroke-width="1.5" stroke-linecap="round" stroke-linejoin="round"/>
</svg>
