<svg width="25" height="26" viewBox="0 0 25 26" fill="none" xmlns="http://www.w3.org/2000/svg">
<path d="M19.7917 5.1039H18.75V4.06224C18.75 3.43724 18.3334 3.02057 17.7084 3.02057C17.0834 3.02057 16.6667 3.43724 16.6667 4.06224V5.1039H8.33337V4.06224C8.33337 3.43724 7.91671 3.02057 7.29171 3.02057C6.66671 3.02057 6.25004 3.43724 6.25004 4.06224V5.1039H5.20837C3.43754 5.1039 2.08337 6.45807 2.08337 8.22891V9.27058H22.9167V8.22891C22.9167 6.45807 21.5625 5.1039 19.7917 5.1039ZM2.08337 20.7289C2.08337 22.4998 3.43754 23.8539 5.20837 23.8539H19.7917C21.5625 23.8539 22.9167 22.4998 22.9167 20.7289V11.3539H2.08337V20.7289ZM17.7084 13.4372C18.3334 13.4372 18.75 13.8539 18.75 14.4789C18.75 15.1039 18.3334 15.5206 17.7084 15.5206C17.0834 15.5206 16.6667 15.1039 16.6667 14.4789C16.6667 13.8539 17.0834 13.4372 17.7084 13.4372ZM17.7084 17.6039C18.3334 17.6039 18.75 18.0206 18.75 18.6456C18.75 19.2706 18.3334 19.6873 17.7084 19.6873C17.0834 19.6873 16.6667 19.2706 16.6667 18.6456C16.6667 18.0206 17.0834 17.6039 17.7084 17.6039ZM12.5 13.4372C13.125 13.4372 13.5417 13.8539 13.5417 14.4789C13.5417 15.1039 13.125 15.5206 12.5 15.5206C11.875 15.5206 11.4584 15.1039 11.4584 14.4789C11.4584 13.8539 11.875 13.4372 12.5 13.4372ZM12.5 17.6039C13.125 17.6039 13.5417 18.0206 13.5417 18.6456C13.5417 19.2706 13.125 19.6873 12.5 19.6873C11.875 19.6873 11.4584 19.2706 11.4584 18.6456C11.4584 18.0206 11.875 17.6039 12.5 17.6039ZM7.29171 13.4372C7.91671 13.4372 8.33337 13.8539 8.33337 14.4789C8.33337 15.1039 7.91671 15.5206 7.29171 15.5206C6.66671 15.5206 6.25004 15.1039 6.25004 14.4789C6.25004 13.8539 6.66671 13.4372 7.29171 13.4372ZM7.29171 17.6039C7.91671 17.6039 8.33337 18.0206 8.33337 18.6456C8.33337 19.2706 7.91671 19.6873 7.29171 19.6873C6.66671 19.6873 6.25004 19.2706 6.25004 18.6456C6.25004 18.0206 6.66671 17.6039 7.29171 17.6039Z" fill="#393939"/>
</svg>
