<svg width="22" height="22" viewBox="0 0 22 22" fill="none" xmlns="http://www.w3.org/2000/svg">
<path d="M8.8125 21V21.5H9.3125H11.6875H12.1875V21V11.025V10.8179L12.0411 10.6714L6.24461 4.875H8.125H8.625V4.375V2V1.5H8.125H1H0.5V2V9.125V9.625H1H3.375H3.875V9.125V7.24461L8.8125 12.1821V21ZM13.5308 10.1911L13.8872 10.5474L14.2407 10.1883L17.125 7.25818V9.125V9.625H17.625H20H20.5V9.125V2V1.5H20H12.875H12.375V2V4.375V4.875H12.875H14.7418L11.8117 7.7593L11.4526 8.11283L11.8089 8.46918L13.5308 10.1911Z" fill="#FF5C00" stroke="#FFFCFC"/>
<rect x="14" y="13" width="6" height="8" rx="1" fill="#FF5C00"/>
<rect x="1" y="13" width="6" height="8" rx="1" fill="#FF5C00"/>
</svg>
