<svg width="26" height="26" viewBox="0 0 26 26" fill="none" xmlns="http://www.w3.org/2000/svg">
<path d="M22.75 10.5625H21.125V8.9375C21.125 6.6625 19.3375 4.875 17.0625 4.875H14.625V3.25H17.0625C20.2313 3.25 22.75 5.76875 22.75 8.9375V10.5625ZM17.875 16.25H20.3125V17.875H17.875V16.25ZM17.875 19.5H20.3125V21.125H17.875V19.5Z" fill="#151863"/>
<path d="M21.9375 24.375H17.875V22.75H21.9375V14.625H16.25V21.9375C16.25 23.3188 15.1938 24.375 13.8125 24.375C12.4312 24.375 11.375 23.3188 11.375 21.9375V19.5H13V21.9375C13 22.425 13.325 22.75 13.8125 22.75C14.3 22.75 14.625 22.425 14.625 21.9375V13H23.5625V22.75C23.5625 23.6438 22.8313 24.375 21.9375 24.375ZM9.75 22.75H8.9375C5.76875 22.75 3.25 20.2313 3.25 17.0625V13.8125H4.875V17.0625C4.875 19.3375 6.6625 21.125 8.9375 21.125H9.75V22.75ZM8.9375 8.125V9.75H11.375C12.2688 9.75 13 9.01875 13 8.125V3.25C13 2.35625 12.2688 1.625 11.375 1.625H3.25C2.35625 1.625 1.625 2.35625 1.625 3.25V8.125C1.625 9.01875 2.35625 9.75 3.25 9.75H5.2L6.58125 12.1875L7.9625 11.375L6.09375 8.125H3.25V3.25H11.375V8.125H8.9375Z" fill="#151863"/>
</svg>
