<svg width="28" height="28" viewBox="0 0 28 28" fill="none" xmlns="http://www.w3.org/2000/svg">
<path d="M3.5 14H14V15.75H3.5V14ZM1.75 9.625H10.5V11.375H1.75V9.625Z" fill="#151863"/>
<path d="M26.1791 14.5303L23.5541 8.40525C23.4867 8.24782 23.3746 8.11364 23.2316 8.01938C23.0887 7.92511 22.9212 7.87491 22.7499 7.875H20.1249V6.125C20.1249 5.89294 20.0327 5.67038 19.8686 5.50628C19.7046 5.34219 19.482 5.25 19.2499 5.25H5.24993V7H18.3749V17.9865C17.9762 18.218 17.6273 18.5262 17.3483 18.8932C17.0692 19.2603 16.8656 19.6789 16.7492 20.125H11.2507C11.0377 19.3002 10.5312 18.5813 9.82617 18.1032C9.12111 17.6251 8.26589 17.4206 7.4208 17.5279C6.57571 17.6352 5.79879 18.0471 5.23564 18.6863C4.6725 19.3255 4.36182 20.1481 4.36182 21C4.36182 21.8519 4.6725 22.6745 5.23564 23.3137C5.79879 23.9529 6.57571 24.3648 7.4208 24.4721C8.26589 24.5794 9.12111 24.3749 9.82617 23.8968C10.5312 23.4187 11.0377 22.6998 11.2507 21.875H16.7492C16.9395 22.626 17.3748 23.292 17.9862 23.7678C18.5976 24.2435 19.3502 24.5019 20.1249 24.5019C20.8996 24.5019 21.6522 24.2435 22.2636 23.7678C22.875 23.292 23.3103 22.626 23.5007 21.875H25.3749C25.607 21.875 25.8296 21.7828 25.9936 21.6187C26.1577 21.4546 26.2499 21.2321 26.2499 21V14.875C26.25 14.7565 26.2259 14.6392 26.1791 14.5303V14.5303ZM7.87493 22.75C7.52881 22.75 7.19046 22.6474 6.90268 22.4551C6.61489 22.2628 6.39059 21.9895 6.25814 21.6697C6.12568 21.3499 6.09103 20.9981 6.15855 20.6586C6.22608 20.3191 6.39275 20.0073 6.63749 19.7626C6.88223 19.5178 7.19405 19.3512 7.53352 19.2836C7.87299 19.2161 8.22485 19.2508 8.54462 19.3832C8.86439 19.5157 9.13771 19.74 9.33 20.0278C9.52229 20.3155 9.62493 20.6539 9.62493 21C9.62446 21.464 9.43994 21.9088 9.11185 22.2369C8.78376 22.565 8.33891 22.7495 7.87493 22.75V22.75ZM20.1249 9.625H22.1724L24.0484 14H20.1249V9.625ZM20.1249 22.75C19.7788 22.75 19.4405 22.6474 19.1527 22.4551C18.8649 22.2628 18.6406 21.9895 18.5081 21.6697C18.3757 21.3499 18.341 20.9981 18.4086 20.6586C18.4761 20.3191 18.6427 20.0073 18.8875 19.7626C19.1322 19.5178 19.4441 19.3512 19.7835 19.2836C20.123 19.2161 20.4749 19.2508 20.7946 19.3832C21.1144 19.5157 21.3877 19.74 21.58 20.0278C21.7723 20.3155 21.8749 20.6539 21.8749 21C21.8745 21.464 21.6899 21.9088 21.3619 22.2369C21.0338 22.565 20.5889 22.7495 20.1249 22.75ZM24.4999 20.125H23.5007C23.3079 19.3755 22.8719 18.7112 22.261 18.2361C21.6501 17.7611 20.8988 17.5022 20.1249 17.5V15.75H24.4999V20.125Z" fill="#151863"/>
</svg>
