<svg width="25" height="25" viewBox="0 0 25 25" fill="none" xmlns="http://www.w3.org/2000/svg">
<path d="M16.6667 17.7083V19.7917H2.08337V17.7083C2.08337 17.7083 2.08337 13.5417 9.37504 13.5417C16.6667 13.5417 16.6667 17.7083 16.6667 17.7083ZM13.0209 7.81251C13.0209 7.09144 12.8071 6.38655 12.4064 5.787C12.0058 5.18744 11.4364 4.72015 10.7702 4.4442C10.1041 4.16826 9.371 4.09606 8.66377 4.23673C7.95655 4.37741 7.30693 4.72464 6.79705 5.23452C6.28717 5.7444 5.93994 6.39403 5.79926 7.10125C5.65859 7.80847 5.73079 8.54152 6.00673 9.20771C6.28267 9.8739 6.74997 10.4433 7.34952 10.8439C7.94908 11.2445 8.65396 11.4583 9.37504 11.4583C10.342 11.4583 11.2693 11.0742 11.953 10.3905C12.6368 9.70678 13.0209 8.77945 13.0209 7.81251ZM16.6042 13.5417C17.2446 14.0373 17.7686 14.6671 18.1393 15.387C18.51 16.1069 18.7185 16.8992 18.75 17.7083V19.7917H22.9167V17.7083C22.9167 17.7083 22.9167 13.9271 16.6042 13.5417ZM15.625 4.16668C14.908 4.16269 14.2068 4.37705 13.6146 4.78126C14.2474 5.66536 14.5876 6.72531 14.5876 7.81251C14.5876 8.89972 14.2474 9.95966 13.6146 10.8438C14.2068 11.248 14.908 11.4623 15.625 11.4583C16.592 11.4583 17.5193 11.0742 18.203 10.3905C18.8868 9.70678 19.2709 8.77945 19.2709 7.81251C19.2709 6.84558 18.8868 5.91825 18.203 5.23452C17.5193 4.55079 16.592 4.16668 15.625 4.16668Z" fill="#393939"/>
</svg>
